<mxfile host="app.diagrams.net" modified="2021-03-12T20:07:29.069Z" agent="5.0 (Windows NT 10.0; Win64; x64) AppleWebKit/537.36 (KHTML, like Gecko) Chrome/88.0.4324.190 Safari/537.36" etag="SiJqdGQoG2CCJDWBX3We" version="14.4.2" type="github">
  <diagram id="cEXB4-bxNu662J2PTYuq" name="第 1 页">
    <mxGraphModel dx="981" dy="552" grid="1" gridSize="10" guides="1" tooltips="1" connect="1" arrows="1" fold="1" page="1" pageScale="1" pageWidth="827" pageHeight="1169" math="0" shadow="0">
      <root>
        <mxCell id="0" />
        <mxCell id="1" parent="0" />
        <mxCell id="yHtuHeyz4KcuY9ajyl9l-1" value="&lt;font face=&quot;Times New Roman&quot; style=&quot;font-size: 20px&quot;&gt;weight layer&lt;/font&gt;" style="rounded=0;whiteSpace=wrap;html=1;rotation=-90;" vertex="1" parent="1">
          <mxGeometry x="80.63" y="269.38" width="118.75" height="40" as="geometry" />
        </mxCell>
        <mxCell id="yHtuHeyz4KcuY9ajyl9l-3" value="" style="endArrow=classic;html=1;" edge="1" parent="1">
          <mxGeometry width="50" height="50" relative="1" as="geometry">
            <mxPoint x="60" y="289.5" as="sourcePoint" />
            <mxPoint x="120" y="289.5" as="targetPoint" />
          </mxGeometry>
        </mxCell>
        <mxCell id="yHtuHeyz4KcuY9ajyl9l-4" value="" style="endArrow=classic;html=1;" edge="1" parent="1">
          <mxGeometry width="50" height="50" relative="1" as="geometry">
            <mxPoint x="160" y="290" as="sourcePoint" />
            <mxPoint x="210" y="289.5" as="targetPoint" />
          </mxGeometry>
        </mxCell>
        <mxCell id="yHtuHeyz4KcuY9ajyl9l-5" value="&lt;font face=&quot;Times New Roman&quot; style=&quot;font-size: 13px&quot;&gt;ReLU&lt;/font&gt;" style="text;html=1;resizable=0;autosize=1;align=center;verticalAlign=middle;points=[];fillColor=none;strokeColor=none;rounded=0;rotation=-90;" vertex="1" parent="1">
          <mxGeometry x="160" y="260" width="50" height="20" as="geometry" />
        </mxCell>
        <mxCell id="yHtuHeyz4KcuY9ajyl9l-6" value="&lt;font face=&quot;Times New Roman&quot;&gt;&lt;font style=&quot;font-size: 20px ; font-style: italic&quot;&gt;f&lt;/font&gt;&lt;span style=&quot;font-size: 20px&quot;&gt;(&lt;/span&gt;&lt;font&gt;&lt;i&gt;&lt;span style=&quot;font-size: 20px&quot;&gt;x&lt;/span&gt;&lt;font&gt;&lt;sub style=&quot;font-size: 11px&quot;&gt;1&lt;/sub&gt;&lt;span style=&quot;font-size: 11px&quot;&gt;，&lt;/span&gt;&lt;font style=&quot;font-size: 20px&quot;&gt;ω&lt;/font&gt;&lt;sub style=&quot;font-size: 11px&quot;&gt;1&lt;/sub&gt;&lt;/font&gt;&lt;/i&gt;&lt;/font&gt;&lt;span style=&quot;font-size: 20px&quot;&gt;)&lt;/span&gt;&lt;/font&gt;" style="text;html=1;resizable=0;autosize=1;align=center;verticalAlign=middle;points=[];fillColor=none;strokeColor=none;rounded=0;rotation=-90;" vertex="1" parent="1">
          <mxGeometry x="248" y="340" width="80" height="30" as="geometry" />
        </mxCell>
        <mxCell id="yHtuHeyz4KcuY9ajyl9l-7" value="&lt;font face=&quot;Times New Roman&quot;&gt;&lt;font&gt;&lt;i&gt;&lt;font style=&quot;font-size: 20px&quot;&gt;x&lt;/font&gt;&lt;font style=&quot;font-size: 11px&quot;&gt;&lt;sub&gt;1&lt;/sub&gt;&lt;/font&gt;&lt;/i&gt;&lt;/font&gt;&lt;/font&gt;" style="text;html=1;resizable=0;autosize=1;align=center;verticalAlign=middle;points=[];fillColor=none;strokeColor=none;rounded=0;rotation=-90;" vertex="1" parent="1">
          <mxGeometry x="70" y="295" width="30" height="30" as="geometry" />
        </mxCell>
        <mxCell id="yHtuHeyz4KcuY9ajyl9l-8" value="" style="endArrow=classic;html=1;" edge="1" parent="1">
          <mxGeometry width="50" height="50" relative="1" as="geometry">
            <mxPoint x="250" y="290.21" as="sourcePoint" />
            <mxPoint x="280" y="290" as="targetPoint" />
          </mxGeometry>
        </mxCell>
        <mxCell id="yHtuHeyz4KcuY9ajyl9l-9" value="" style="curved=1;endArrow=classic;html=1;entryX=0.5;entryY=0;entryDx=0;entryDy=0;" edge="1" parent="1" target="yHtuHeyz4KcuY9ajyl9l-12">
          <mxGeometry width="50" height="50" relative="1" as="geometry">
            <mxPoint x="90" y="290" as="sourcePoint" />
            <mxPoint x="320" y="210" as="targetPoint" />
            <Array as="points">
              <mxPoint x="90" y="250" />
              <mxPoint x="100" y="220" />
              <mxPoint x="120" y="190" />
              <mxPoint x="150" y="170" />
              <mxPoint x="190" y="160" />
              <mxPoint x="230" y="170" />
              <mxPoint x="270" y="200" />
              <mxPoint x="290" y="240" />
            </Array>
          </mxGeometry>
        </mxCell>
        <mxCell id="yHtuHeyz4KcuY9ajyl9l-10" value="&lt;font face=&quot;Times New Roman&quot; style=&quot;font-size: 20px&quot;&gt;weight layer&lt;/font&gt;" style="rounded=0;whiteSpace=wrap;html=1;rotation=-90;" vertex="1" parent="1">
          <mxGeometry x="170" y="270" width="118.75" height="40" as="geometry" />
        </mxCell>
        <mxCell id="yHtuHeyz4KcuY9ajyl9l-12" value="&lt;font style=&quot;font-size: 16px&quot; face=&quot;Times New Roman&quot;&gt;+&lt;/font&gt;" style="ellipse;whiteSpace=wrap;html=1;aspect=fixed;" vertex="1" parent="1">
          <mxGeometry x="280" y="279.38" width="20" height="20" as="geometry" />
        </mxCell>
        <mxCell id="yHtuHeyz4KcuY9ajyl9l-13" value="" style="endArrow=classic;html=1;" edge="1" parent="1">
          <mxGeometry width="50" height="50" relative="1" as="geometry">
            <mxPoint x="300" y="289.92" as="sourcePoint" />
            <mxPoint x="330" y="289.71" as="targetPoint" />
          </mxGeometry>
        </mxCell>
        <mxCell id="yHtuHeyz4KcuY9ajyl9l-14" value="&lt;font face=&quot;Times New Roman&quot;&gt;&lt;font&gt;&lt;i&gt;&lt;span style=&quot;font-size: 20px&quot;&gt;x&lt;/span&gt;&lt;sub&gt;&lt;font style=&quot;font-size: 11px&quot;&gt;2&lt;/font&gt;&lt;/sub&gt;&lt;/i&gt;&lt;/font&gt;&lt;/font&gt;" style="text;html=1;resizable=0;autosize=1;align=center;verticalAlign=middle;points=[];fillColor=none;strokeColor=none;rounded=0;rotation=-90;" vertex="1" parent="1">
          <mxGeometry x="300" y="295" width="30" height="30" as="geometry" />
        </mxCell>
        <mxCell id="yHtuHeyz4KcuY9ajyl9l-15" value="" style="endArrow=none;dashed=1;html=1;dashPattern=1 3;strokeWidth=2;" edge="1" parent="1">
          <mxGeometry width="50" height="50" relative="1" as="geometry">
            <mxPoint x="334" y="289.71000000000004" as="sourcePoint" />
            <mxPoint x="384" y="290" as="targetPoint" />
          </mxGeometry>
        </mxCell>
        <mxCell id="yHtuHeyz4KcuY9ajyl9l-29" value="&lt;font face=&quot;Times New Roman&quot; style=&quot;font-size: 20px&quot;&gt;weight layer&lt;/font&gt;" style="rounded=0;whiteSpace=wrap;html=1;rotation=-90;" vertex="1" parent="1">
          <mxGeometry x="390.63" y="269.38" width="118.75" height="40" as="geometry" />
        </mxCell>
        <mxCell id="yHtuHeyz4KcuY9ajyl9l-31" value="" style="endArrow=classic;html=1;" edge="1" parent="1">
          <mxGeometry width="50" height="50" relative="1" as="geometry">
            <mxPoint x="470" y="290" as="sourcePoint" />
            <mxPoint x="520" y="289.5" as="targetPoint" />
          </mxGeometry>
        </mxCell>
        <mxCell id="yHtuHeyz4KcuY9ajyl9l-32" value="&lt;font face=&quot;Times New Roman&quot; style=&quot;font-size: 13px&quot;&gt;ReLU&lt;/font&gt;" style="text;html=1;resizable=0;autosize=1;align=center;verticalAlign=middle;points=[];fillColor=none;strokeColor=none;rounded=0;rotation=-90;" vertex="1" parent="1">
          <mxGeometry x="470" y="260" width="50" height="20" as="geometry" />
        </mxCell>
        <mxCell id="yHtuHeyz4KcuY9ajyl9l-33" value="&lt;font face=&quot;Times New Roman&quot;&gt;&lt;font style=&quot;font-size: 20px ; font-style: italic&quot;&gt;f&lt;/font&gt;&lt;span style=&quot;font-size: 20px&quot;&gt;(&lt;/span&gt;&lt;font&gt;&lt;i&gt;&lt;span style=&quot;font-size: 20px&quot;&gt;x&lt;/span&gt;&lt;sub&gt;&lt;font style=&quot;font-size: 12px&quot;&gt;L-1&lt;/font&gt;&lt;/sub&gt;&lt;/i&gt;&lt;/font&gt;&lt;/font&gt;&lt;i style=&quot;font-family: &amp;#34;times new roman&amp;#34;&quot;&gt;&lt;span style=&quot;font-size: 11px&quot;&gt;，&lt;/span&gt;&lt;font style=&quot;font-size: 20px&quot;&gt;ω&lt;/font&gt;&lt;font style=&quot;font-size: 11px&quot;&gt;&lt;sub&gt;L-1&lt;/sub&gt;&lt;/font&gt;&lt;/i&gt;&lt;font face=&quot;Times New Roman&quot;&gt;&lt;span style=&quot;font-size: 20px&quot;&gt;)&lt;/span&gt;&lt;/font&gt;" style="text;html=1;resizable=0;autosize=1;align=center;verticalAlign=middle;points=[];fillColor=none;strokeColor=none;rounded=0;rotation=-90;" vertex="1" parent="1">
          <mxGeometry x="548" y="340" width="100" height="30" as="geometry" />
        </mxCell>
        <mxCell id="yHtuHeyz4KcuY9ajyl9l-34" value="&lt;font face=&quot;Times New Roman&quot;&gt;&lt;font&gt;&lt;i&gt;&lt;font style=&quot;font-size: 20px&quot;&gt;x&lt;/font&gt;&lt;span style=&quot;font-size: 11px&quot;&gt;&lt;sub&gt;L-1&lt;/sub&gt;&lt;/span&gt;&lt;/i&gt;&lt;/font&gt;&lt;/font&gt;" style="text;html=1;resizable=0;autosize=1;align=center;verticalAlign=middle;points=[];fillColor=none;strokeColor=none;rounded=0;rotation=-90;" vertex="1" parent="1">
          <mxGeometry x="375" y="295" width="40" height="30" as="geometry" />
        </mxCell>
        <mxCell id="yHtuHeyz4KcuY9ajyl9l-35" value="" style="endArrow=classic;html=1;" edge="1" parent="1">
          <mxGeometry width="50" height="50" relative="1" as="geometry">
            <mxPoint x="560" y="290.21000000000004" as="sourcePoint" />
            <mxPoint x="590" y="290" as="targetPoint" />
          </mxGeometry>
        </mxCell>
        <mxCell id="yHtuHeyz4KcuY9ajyl9l-36" value="" style="curved=1;endArrow=classic;html=1;entryX=0.5;entryY=0;entryDx=0;entryDy=0;" edge="1" parent="1" target="yHtuHeyz4KcuY9ajyl9l-38">
          <mxGeometry width="50" height="50" relative="1" as="geometry">
            <mxPoint x="400" y="290" as="sourcePoint" />
            <mxPoint x="630" y="210" as="targetPoint" />
            <Array as="points">
              <mxPoint x="400" y="250" />
              <mxPoint x="410" y="220" />
              <mxPoint x="430" y="190" />
              <mxPoint x="460" y="170" />
              <mxPoint x="500" y="160" />
              <mxPoint x="540" y="170" />
              <mxPoint x="580" y="200" />
              <mxPoint x="600" y="240" />
            </Array>
          </mxGeometry>
        </mxCell>
        <mxCell id="yHtuHeyz4KcuY9ajyl9l-37" value="&lt;font face=&quot;Times New Roman&quot; style=&quot;font-size: 20px&quot;&gt;weight layer&lt;/font&gt;" style="rounded=0;whiteSpace=wrap;html=1;rotation=-90;" vertex="1" parent="1">
          <mxGeometry x="480" y="270" width="118.75" height="40" as="geometry" />
        </mxCell>
        <mxCell id="yHtuHeyz4KcuY9ajyl9l-38" value="&lt;font style=&quot;font-size: 16px&quot; face=&quot;Times New Roman&quot;&gt;+&lt;/font&gt;" style="ellipse;whiteSpace=wrap;html=1;aspect=fixed;" vertex="1" parent="1">
          <mxGeometry x="590" y="279.38" width="20" height="20" as="geometry" />
        </mxCell>
        <mxCell id="yHtuHeyz4KcuY9ajyl9l-39" value="" style="endArrow=classic;html=1;" edge="1" parent="1">
          <mxGeometry width="50" height="50" relative="1" as="geometry">
            <mxPoint x="610" y="289.9200000000001" as="sourcePoint" />
            <mxPoint x="640" y="289.71000000000004" as="targetPoint" />
          </mxGeometry>
        </mxCell>
        <mxCell id="yHtuHeyz4KcuY9ajyl9l-41" value="" style="endArrow=classic;html=1;" edge="1" parent="1">
          <mxGeometry width="50" height="50" relative="1" as="geometry">
            <mxPoint x="390" y="290" as="sourcePoint" />
            <mxPoint x="429" y="289.71000000000004" as="targetPoint" />
          </mxGeometry>
        </mxCell>
        <mxCell id="yHtuHeyz4KcuY9ajyl9l-42" value="&lt;font face=&quot;Times New Roman&quot;&gt;&lt;font&gt;&lt;i&gt;&lt;font style=&quot;font-size: 20px&quot;&gt;x&lt;/font&gt;&lt;span style=&quot;font-size: 11px&quot;&gt;&lt;sub&gt;L&lt;/sub&gt;&lt;/span&gt;&lt;/i&gt;&lt;/font&gt;&lt;/font&gt;" style="text;html=1;resizable=0;autosize=1;align=center;verticalAlign=middle;points=[];fillColor=none;strokeColor=none;rounded=0;rotation=-90;" vertex="1" parent="1">
          <mxGeometry x="615" y="299.38" width="30" height="30" as="geometry" />
        </mxCell>
        <mxCell id="yHtuHeyz4KcuY9ajyl9l-43" value="&lt;font face=&quot;Times New Roman&quot; style=&quot;font-size: 13px&quot;&gt;ReLU&lt;/font&gt;" style="text;html=1;resizable=0;autosize=1;align=center;verticalAlign=middle;points=[];fillColor=none;strokeColor=none;rounded=0;rotation=-90;" vertex="1" parent="1">
          <mxGeometry x="280" y="259.38" width="50" height="20" as="geometry" />
        </mxCell>
        <mxCell id="yHtuHeyz4KcuY9ajyl9l-44" value="&lt;font face=&quot;Times New Roman&quot; style=&quot;font-size: 13px&quot;&gt;ReLU&lt;/font&gt;" style="text;html=1;resizable=0;autosize=1;align=center;verticalAlign=middle;points=[];fillColor=none;strokeColor=none;rounded=0;rotation=-90;" vertex="1" parent="1">
          <mxGeometry x="595" y="259.38" width="50" height="20" as="geometry" />
        </mxCell>
        <mxCell id="yHtuHeyz4KcuY9ajyl9l-45" value="&lt;font face=&quot;Times New Roman&quot; size=&quot;1&quot;&gt;&lt;i style=&quot;font-size: 20px&quot;&gt;C&lt;/i&gt;&lt;/font&gt;" style="text;html=1;resizable=0;autosize=1;align=center;verticalAlign=middle;points=[];fillColor=none;strokeColor=none;rounded=0;rotation=-90;" vertex="1" parent="1">
          <mxGeometry x="640" y="280" width="30" height="20" as="geometry" />
        </mxCell>
        <mxCell id="yHtuHeyz4KcuY9ajyl9l-46" value="&lt;font face=&quot;Times New Roman&quot;&gt;&lt;font&gt;&lt;i&gt;&lt;font style=&quot;font-size: 20px&quot;&gt;x&lt;/font&gt;&lt;font style=&quot;font-size: 11px&quot;&gt;&lt;sub&gt;1&lt;/sub&gt;&lt;/font&gt;&lt;/i&gt;&lt;/font&gt;&lt;/font&gt;" style="text;html=1;resizable=0;autosize=1;align=center;verticalAlign=middle;points=[];fillColor=none;strokeColor=none;rounded=0;rotation=-90;" vertex="1" parent="1">
          <mxGeometry x="170" y="170" width="30" height="30" as="geometry" />
        </mxCell>
        <mxCell id="yHtuHeyz4KcuY9ajyl9l-47" value="&lt;font face=&quot;Times New Roman&quot;&gt;&lt;font&gt;&lt;i&gt;&lt;font style=&quot;font-size: 20px&quot;&gt;x&lt;/font&gt;&lt;span style=&quot;font-size: 11px&quot;&gt;&lt;sub&gt;L-1&lt;/sub&gt;&lt;/span&gt;&lt;/i&gt;&lt;/font&gt;&lt;/font&gt;" style="text;html=1;resizable=0;autosize=1;align=center;verticalAlign=middle;points=[];fillColor=none;strokeColor=none;rounded=0;rotation=-90;" vertex="1" parent="1">
          <mxGeometry x="480" y="170" width="40" height="30" as="geometry" />
        </mxCell>
      </root>
    </mxGraphModel>
  </diagram>
</mxfile>
